<svg width="64" height="64" viewBox="0 0 64 64" fill="none" xmlns="http://www.w3.org/2000/svg">
<path d="M57.1696 15.1581C58.242 13.9851 58.242 12.0302 57.1696 10.9174L50.7353 3.87971C49.7179 2.70676 47.9306 2.70676 46.8583 3.87971L42.9718 8.10756C42.3245 8.81171 42.3231 9.95696 42.9686 10.663L50.9467 19.3894C51.5898 20.0928 52.632 20.0943 53.2767 19.3929L57.1696 15.1581ZM8.95538 45.3369C8.6463 45.6752 8.47269 46.134 8.47269 46.6123L8.47269 55.3391C8.47269 56.3357 9.21133 57.1437 10.1225 57.1437H18.1002C18.538 57.1437 18.9579 56.9533 19.2673 56.6146L48.03 25.1259C48.6738 24.4211 48.6735 23.279 48.0294 22.5745L40.0513 13.8481C39.4068 13.1432 38.3618 13.1435 37.7176 13.8487L8.95538 45.3369Z" fill="#AB2C26"/>
<path d="M17.5483 5.88712L6.63177 17.8379C6.31313 18.1867 6.13034 18.6555 6.12358 19.1412L6.0002 28.003C5.98611 29.0151 6.72475 29.823 7.65001 29.8075L15.7511 29.6726C16.1957 29.6652 16.6247 29.4648 16.9437 29.1156L27.8596 17.1655L17.5483 5.88712Z" fill="#AB2C26"/>
<path d="M17.8908 28.0797L28.8073 16.1289C29.1259 15.7801 29.3087 15.3113 29.3155 14.8256L29.4389 5.96381C29.4529 4.95176 28.7143 4.14384 27.789 4.15927L19.688 4.29419C19.2434 4.3016 18.8144 4.50199 18.4953 4.85124L7.57947 16.8013L17.8908 28.0797Z" fill="#AB2C26"/>
<path d="M47.206 60.472L39.3692 51.908L49.6805 40.6296L57.5162 49.1925C58.161 49.8972 58.1613 51.0402 57.5168 51.7451L49.5386 60.4715C48.8946 61.1759 47.8504 61.1762 47.206 60.472Z" fill="#AB2C26"/>
<path d="M46.347 36.9835L54.1838 45.5475L43.8724 56.8259L36.0367 48.263C35.3919 47.5583 35.3917 46.4153 36.0362 45.7104L44.0143 36.984C44.6584 36.2795 45.7026 36.2793 46.347 36.9835Z" fill="#AB2C26"/>
</svg>
