<svg width="28" height="28" viewBox="0 0 28 28" fill="none" xmlns="http://www.w3.org/2000/svg">
<path d="M4.66675 14C4.66675 14.3095 4.78966 14.6062 5.00846 14.825C5.22725 15.0438 5.524 15.1667 5.83341 15.1667H14.6884L12.0051 17.8384C11.8957 17.9468 11.8089 18.0759 11.7497 18.218C11.6905 18.3602 11.66 18.5127 11.66 18.6667C11.66 18.8207 11.6905 18.9732 11.7497 19.1154C11.8089 19.2575 11.8957 19.3866 12.0051 19.495C12.1135 19.6044 12.2426 19.6912 12.3847 19.7504C12.5269 19.8096 12.6794 19.8401 12.8334 19.8401C12.9874 19.8401 13.1399 19.8096 13.2821 19.7504C13.4243 19.6912 13.5533 19.6044 13.6617 19.495L18.3284 14.8284C18.4346 14.7174 18.5179 14.5866 18.5734 14.4434C18.6901 14.1593 18.6901 13.8407 18.5734 13.5567C18.5179 13.4135 18.4346 13.2827 18.3284 13.1717L13.6617 8.50504C13.553 8.39626 13.4238 8.30997 13.2817 8.2511C13.1396 8.19223 12.9873 8.16193 12.8334 8.16193C12.6796 8.16193 12.5272 8.19223 12.3851 8.2511C12.243 8.30997 12.1139 8.39626 12.0051 8.50504C11.8963 8.61382 11.81 8.74296 11.7511 8.88508C11.6923 9.02721 11.662 9.17954 11.662 9.33337C11.662 9.48721 11.6923 9.63954 11.7511 9.78167C11.81 9.92379 11.8963 10.0529 12.0051 10.1617L14.6884 12.8334H5.83341C5.524 12.8334 5.22725 12.9563 5.00846 13.1751C4.78966 13.3939 4.66675 13.6906 4.66675 14V14ZM19.8334 2.33337H8.16675C7.23849 2.33337 6.34825 2.70212 5.69187 3.3585C5.0355 4.01488 4.66675 4.90512 4.66675 5.83337V9.33337C4.66675 9.64279 4.78966 9.93954 5.00846 10.1583C5.22725 10.3771 5.524 10.5 5.83341 10.5C6.14283 10.5 6.43958 10.3771 6.65837 10.1583C6.87716 9.93954 7.00008 9.64279 7.00008 9.33337V5.83337C7.00008 5.52395 7.123 5.22721 7.34179 5.00842C7.56058 4.78962 7.85733 4.66671 8.16675 4.66671H19.8334C20.1428 4.66671 20.4396 4.78962 20.6584 5.00842C20.8772 5.22721 21.0001 5.52395 21.0001 5.83337V22.1667C21.0001 22.4761 20.8772 22.7729 20.6584 22.9917C20.4396 23.2105 20.1428 23.3334 19.8334 23.3334H8.16675C7.85733 23.3334 7.56058 23.2105 7.34179 22.9917C7.123 22.7729 7.00008 22.4761 7.00008 22.1667V18.6667C7.00008 18.3573 6.87716 18.0605 6.65837 17.8417C6.43958 17.623 6.14283 17.5 5.83341 17.5C5.524 17.5 5.22725 17.623 5.00846 17.8417C4.78966 18.0605 4.66675 18.3573 4.66675 18.6667V22.1667C4.66675 23.095 5.0355 23.9852 5.69187 24.6416C6.34825 25.298 7.23849 25.6667 8.16675 25.6667H19.8334C20.7617 25.6667 21.6519 25.298 22.3083 24.6416C22.9647 23.9852 23.3334 23.095 23.3334 22.1667V5.83337C23.3334 4.90512 22.9647 4.01488 22.3083 3.3585C21.6519 2.70212 20.7617 2.33337 19.8334 2.33337Z" fill="white"/>
</svg>
