<svg width="28" height="28" viewBox="0 0 28 28" fill="none" xmlns="http://www.w3.org/2000/svg">
<path fill-rule="evenodd" clip-rule="evenodd" d="M14 7.58337C14.6962 7.58337 15.3639 7.30681 15.8562 6.81453C16.3484 6.32225 16.625 5.65457 16.625 4.95837C16.625 4.26218 16.3484 3.5945 15.8562 3.10222C15.3639 2.60994 14.6962 2.33337 14 2.33337C13.3038 2.33337 12.6361 2.60994 12.1439 3.10222C11.6516 3.5945 11.375 4.26218 11.375 4.95837C11.375 5.65457 11.6516 6.32225 12.1439 6.81453C12.6361 7.30681 13.3038 7.58337 14 7.58337ZM22.12 9.00671C22.2066 9.30375 22.1717 9.62304 22.023 9.89434C21.8742 10.1656 21.6237 10.3667 21.3267 10.4534C19.9407 10.857 18.6888 11.1615 17.5 11.364V24.5C17.5004 24.8005 17.3847 25.0896 17.1772 25.307C16.9697 25.5243 16.6864 25.6532 16.3862 25.6669C16.086 25.6805 15.7921 25.5777 15.5658 25.38C15.3395 25.1823 15.1982 24.9049 15.1713 24.6056L14.588 18.189C14.5849 18.1538 14.5833 18.1186 14.5833 18.0834H13.4167C13.4167 18.1186 13.4152 18.1538 13.412 18.189L12.8287 24.6056C12.8018 24.9049 12.6605 25.1823 12.4342 25.38C12.2079 25.5777 11.914 25.6805 11.6138 25.6669C11.3136 25.6532 11.0303 25.5243 10.8228 25.307C10.6153 25.0896 10.4997 24.8005 10.5 24.5V11.3424C9.31409 11.1382 8.06693 10.8401 6.68793 10.4575C6.53887 10.4178 6.39917 10.3489 6.27691 10.2549C6.15464 10.1608 6.05223 10.0435 5.97561 9.90963C5.89898 9.77577 5.84966 9.62803 5.83051 9.47498C5.81135 9.32193 5.82273 9.1666 5.86399 9.01798C5.90526 8.86935 5.97558 8.73039 6.0709 8.60912C6.16622 8.48785 6.28464 8.38669 6.41931 8.31148C6.55398 8.23627 6.70222 8.18852 6.85547 8.17098C7.00871 8.15344 7.16391 8.16646 7.31209 8.20929C10.0001 8.95479 12.0196 9.32462 14.0053 9.33337C15.9863 9.34212 18.0011 8.99212 20.6733 8.21337C20.9704 8.12674 21.2897 8.16165 21.561 8.31043C21.8323 8.4592 22.0334 8.70966 22.12 9.00671Z" fill="#D3D3D3"/>
</svg>
