<svg width="28" height="28" viewBox="0 0 28 28" fill="none" xmlns="http://www.w3.org/2000/svg">
<path d="M4.66667 15.1667H11.6667C11.9761 15.1667 12.2728 15.0437 12.4916 14.825C12.7104 14.6062 12.8333 14.3094 12.8333 14V4.66667C12.8333 4.35725 12.7104 4.0605 12.4916 3.84171C12.2728 3.62292 11.9761 3.5 11.6667 3.5H4.66667C4.35725 3.5 4.0605 3.62292 3.84171 3.84171C3.62292 4.0605 3.5 4.35725 3.5 4.66667V14C3.5 14.3094 3.62292 14.6062 3.84171 14.825C4.0605 15.0437 4.35725 15.1667 4.66667 15.1667ZM3.5 23.3333C3.5 23.6428 3.62292 23.9395 3.84171 24.1583C4.0605 24.3771 4.35725 24.5 4.66667 24.5H11.6667C11.9761 24.5 12.2728 24.3771 12.4916 24.1583C12.7104 23.9395 12.8333 23.6428 12.8333 23.3333V18.6667C12.8333 18.3572 12.7104 18.0605 12.4916 17.8417C12.2728 17.6229 11.9761 17.5 11.6667 17.5H4.66667C4.35725 17.5 4.0605 17.6229 3.84171 17.8417C3.62292 18.0605 3.5 18.3572 3.5 18.6667V23.3333ZM15.1667 23.3333C15.1667 23.6428 15.2896 23.9395 15.5084 24.1583C15.7272 24.3771 16.0239 24.5 16.3333 24.5H23.3333C23.6428 24.5 23.9395 24.3771 24.1583 24.1583C24.3771 23.9395 24.5 23.6428 24.5 23.3333V15.1667C24.5 14.8572 24.3771 14.5605 24.1583 14.3417C23.9395 14.1229 23.6428 14 23.3333 14H16.3333C16.0239 14 15.7272 14.1229 15.5084 14.3417C15.2896 14.5605 15.1667 14.8572 15.1667 15.1667V23.3333ZM16.3333 11.6667H23.3333C23.6428 11.6667 23.9395 11.5437 24.1583 11.325C24.3771 11.1062 24.5 10.8094 24.5 10.5V4.66667C24.5 4.35725 24.3771 4.0605 24.1583 3.84171C23.9395 3.62292 23.6428 3.5 23.3333 3.5H16.3333C16.0239 3.5 15.7272 3.62292 15.5084 3.84171C15.2896 4.0605 15.1667 4.35725 15.1667 4.66667V10.5C15.1667 10.8094 15.2896 11.1062 15.5084 11.325C15.7272 11.5437 16.0239 11.6667 16.3333 11.6667Z" fill="#CDCDCD"/>
</svg>
