<svg width="128" height="128" viewBox="0 0 128 128" fill="none" xmlns="http://www.w3.org/2000/svg">
<path d="M64 8C33.075 8 8 33.075 8 64C8 94.925 33.075 120 64 120C94.925 120 120 94.925 120 64C120 33.075 94.925 8 64 8ZM68 91C68 91.55 67.55 92 67 92H61C60.45 92 60 91.55 60 91V57C60 56.45 60.45 56 61 56H67C67.55 56 68 56.45 68 57V91ZM64 48C62.4299 47.9679 60.9349 47.3217 59.8359 46.2C58.7368 45.0783 58.1212 43.5704 58.1212 42C58.1212 40.4296 58.7368 38.9217 59.8359 37.8C60.9349 36.6783 62.4299 36.0321 64 36C65.5701 36.0321 67.0651 36.6783 68.1641 37.8C69.2632 38.9217 69.8788 40.4296 69.8788 42C69.8788 43.5704 69.2632 45.0783 68.1641 46.2C67.0651 47.3217 65.5701 47.9679 64 48Z" fill="#D03B31"/>
</svg>
