<svg width="96" height="96" viewBox="0 0 96 96" fill="none" xmlns="http://www.w3.org/2000/svg">
<path d="M45.1875 14.25H50.8125C51.3125 14.25 51.5625 14.5 51.5625 15V81C51.5625 81.5 51.3125 81.75 50.8125 81.75H45.1875C44.6875 81.75 44.4375 81.5 44.4375 81V15C44.4375 14.5 44.6875 14.25 45.1875 14.25Z" fill="#D03B31"/>
<path d="M16.5 44.4375H79.5C80 44.4375 80.25 44.6875 80.25 45.1875V50.8125C80.25 51.3125 80 51.5625 79.5 51.5625H16.5C16 51.5625 15.75 51.3125 15.75 50.8125V45.1875C15.75 44.6875 16 44.4375 16.5 44.4375Z" fill="#D03B31"/>
</svg>
