<svg width="28" height="28" viewBox="0 0 28 28" fill="none" xmlns="http://www.w3.org/2000/svg">
<path d="M11.9 2.80005H16.1C16.5344 2.79982 16.9583 2.93435 17.3131 3.18509C17.6679 3.43583 17.9362 3.79044 18.081 4.20005H20.3C20.8569 4.20005 21.3911 4.4213 21.7849 4.81513C22.1787 5.20895 22.4 5.74309 22.4 6.30005V23.1C22.4 23.657 22.1787 24.1911 21.7849 24.585C21.3911 24.9788 20.8569 25.2001 20.3 25.2001H7.69998C7.14302 25.2001 6.60888 24.9788 6.21505 24.585C5.82122 24.1911 5.59998 23.657 5.59998 23.1V6.30005C5.59998 5.74309 5.82122 5.20895 6.21505 4.81513C6.60888 4.4213 7.14302 4.20005 7.69998 4.20005H9.91898C10.0638 3.79044 10.3321 3.43583 10.6869 3.18509C11.0417 2.93435 11.4655 2.79982 11.9 2.80005ZM11.2 4.90005C11.2 5.0857 11.2737 5.26375 11.405 5.39502C11.5363 5.5263 11.7143 5.60005 11.9 5.60005H16.1C16.2856 5.60005 16.4637 5.5263 16.595 5.39502C16.7262 5.26375 16.8 5.0857 16.8 4.90005C16.8 4.7144 16.7262 4.53635 16.595 4.40507C16.4637 4.2738 16.2856 4.20005 16.1 4.20005H11.9C11.7143 4.20005 11.5363 4.2738 11.405 4.40507C11.2737 4.53635 11.2 4.7144 11.2 4.90005ZM17.85 12.95C18.1285 12.95 18.3955 12.8394 18.5924 12.6425C18.7894 12.4456 18.9 12.1785 18.9 11.9C18.9 11.6216 18.7894 11.3545 18.5924 11.1576C18.3955 10.9607 18.1285 10.85 17.85 10.85C17.5715 10.85 17.3044 10.9607 17.1075 11.1576C16.9106 11.3545 16.8 11.6216 16.8 11.9C16.8 12.1785 16.9106 12.4456 17.1075 12.6425C17.3044 12.8394 17.5715 12.95 17.85 12.95ZM17.85 17.1501C18.1285 17.1501 18.3955 17.0394 18.5924 16.8425C18.7894 16.6456 18.9 16.3785 18.9 16.1C18.9 15.8216 18.7894 15.5545 18.5924 15.3576C18.3955 15.1607 18.1285 15.05 17.85 15.05C17.5715 15.05 17.3044 15.1607 17.1075 15.3576C16.9106 15.5545 16.8 15.8216 16.8 16.1C16.8 16.3785 16.9106 16.6456 17.1075 16.8425C17.3044 17.0394 17.5715 17.1501 17.85 17.1501ZM16.8 20.3001C16.8 20.5785 16.9106 20.8456 17.1075 21.0425C17.3044 21.2394 17.5715 21.35 17.85 21.35C18.1285 21.35 18.3955 21.2394 18.5924 21.0425C18.7894 20.8456 18.9 20.5785 18.9 20.3001C18.9 20.0216 18.7894 19.7545 18.5924 19.5576C18.3955 19.3607 18.1285 19.25 17.85 19.25C17.5715 19.25 17.3044 19.3607 17.1075 19.5576C16.9106 19.7545 16.8 20.0216 16.8 20.3001ZM15.4 11.9C15.4 11.7144 15.3262 11.5363 15.195 11.4051C15.0637 11.2738 14.8856 11.2 14.7 11.2H9.79998C9.61432 11.2 9.43628 11.2738 9.305 11.4051C9.17373 11.5363 9.09998 11.7144 9.09998 11.9C9.09998 12.0857 9.17373 12.2637 9.305 12.395C9.43628 12.5263 9.61432 12.6 9.79998 12.6H14.7C14.8856 12.6 15.0637 12.5263 15.195 12.395C15.3262 12.2637 15.4 12.0857 15.4 11.9ZM15.4 16.1C15.4 15.9144 15.3262 15.7364 15.195 15.6051C15.0637 15.4738 14.8856 15.4 14.7 15.4H9.79998C9.61432 15.4 9.43628 15.4738 9.305 15.6051C9.17373 15.7364 9.09998 15.9144 9.09998 16.1C9.09998 16.2857 9.17373 16.4637 9.305 16.595C9.43628 16.7263 9.61432 16.8 9.79998 16.8H14.7C14.8856 16.8 15.0637 16.7263 15.195 16.595C15.3262 16.4637 15.4 16.2857 15.4 16.1ZM15.4 20.3001C15.4 20.1144 15.3262 19.9363 15.195 19.8051C15.0637 19.6738 14.8856 19.6 14.7 19.6H9.79998C9.61432 19.6 9.43628 19.6738 9.305 19.8051C9.17373 19.9363 9.09998 20.1144 9.09998 20.3001C9.09998 20.4857 9.17373 20.6637 9.305 20.795C9.43628 20.9263 9.61432 21 9.79998 21H14.7C14.8856 21 15.0637 20.9263 15.195 20.795C15.3262 20.6637 15.4 20.4857 15.4 20.3001Z" fill="#CDCDCD"/>
</svg>
