<svg width="28" height="28" viewBox="0 0 28 28" fill="none" xmlns="http://www.w3.org/2000/svg">
<path d="M16.1234 25.6667H11.8767C11.6106 25.6668 11.3525 25.5758 11.1452 25.4091C10.9379 25.2423 10.7938 25.0096 10.7369 24.7497L10.262 22.5517C9.6286 22.2742 9.02797 21.9271 8.47119 21.5169L6.32803 22.1994C6.07435 22.2803 5.80064 22.272 5.55233 22.1758C5.30403 22.0797 5.09609 21.9015 4.96303 21.6709L2.83503 17.9947C2.70336 17.7639 2.65394 17.4952 2.69484 17.2326C2.73575 16.97 2.86455 16.7291 3.06019 16.5492L4.72269 15.0325C4.64709 14.3455 4.64709 13.6522 4.72269 12.9652L3.06019 11.452C2.86428 11.2721 2.73529 11.031 2.69438 10.7681C2.65348 10.5053 2.70307 10.2363 2.83503 10.0054L4.95836 6.32687C5.09142 6.09624 5.29937 5.91806 5.54767 5.82193C5.79597 5.72579 6.06968 5.71748 6.32336 5.79837L8.46653 6.48087C8.75119 6.27087 9.04753 6.07487 9.35319 5.89754C9.64836 5.73187 9.95169 5.58137 10.262 5.44721L10.738 3.25154C10.7947 2.9916 10.9385 2.75884 11.1456 2.59185C11.3527 2.42485 11.6107 2.33365 11.8767 2.33337H16.1234C16.3894 2.33365 16.6474 2.42485 16.8545 2.59185C17.0616 2.75884 17.2054 2.9916 17.262 3.25154L17.7427 5.44837C18.3753 5.72752 18.9758 6.0745 19.5335 6.48321L21.6779 5.80071C21.9314 5.72011 22.2048 5.72857 22.4529 5.8247C22.7009 5.92082 22.9087 6.09882 23.0417 6.32921L25.165 10.0077C25.4357 10.4825 25.3424 11.0834 24.9399 11.4532L23.2774 12.9699C23.353 13.6569 23.353 14.3502 23.2774 15.0372L24.9399 16.5539C25.3424 16.9249 25.4357 17.5245 25.165 17.9994L23.0417 21.6779C22.9086 21.9085 22.7007 22.0867 22.4524 22.1828C22.2041 22.279 21.9304 22.2873 21.6767 22.2064L19.5335 21.5239C18.9772 21.9338 18.3769 22.2805 17.7439 22.5575L17.262 24.7497C17.2051 25.0094 17.0612 25.2419 16.8541 25.4087C16.6471 25.5755 16.3892 25.6665 16.1234 25.6667V25.6667ZM13.9954 9.33337C12.7577 9.33337 11.5707 9.82504 10.6955 10.7002C9.82036 11.5754 9.32869 12.7624 9.32869 14C9.32869 15.2377 9.82036 16.4247 10.6955 17.2999C11.5707 18.175 12.7577 18.6667 13.9954 18.6667C15.233 18.6667 16.42 18.175 17.2952 17.2999C18.1704 16.4247 18.662 15.2377 18.662 14C18.662 12.7624 18.1704 11.5754 17.2952 10.7002C16.42 9.82504 15.233 9.33337 13.9954 9.33337V9.33337Z" fill="#CDCDCD"/>
</svg>
