<svg width="28" height="28" viewBox="0 0 28 28" fill="none" xmlns="http://www.w3.org/2000/svg">
<path d="M6.99998 24.5H3.49998C3.19056 24.5 2.89381 24.3771 2.67502 24.1583C2.45623 23.9395 2.33331 23.6428 2.33331 23.3333V14C2.33331 13.6906 2.45623 13.3938 2.67502 13.1751C2.89381 12.9563 3.19056 12.8333 3.49998 12.8333H6.99998C7.3094 12.8333 7.60614 12.9563 7.82494 13.1751C8.04373 13.3938 8.16665 13.6906 8.16665 14V23.3333C8.16665 23.6428 8.04373 23.9395 7.82494 24.1583C7.60614 24.3771 7.3094 24.5 6.99998 24.5ZM15.1666 24.5H11.6666C11.3572 24.5 11.0605 24.3771 10.8417 24.1583C10.6229 23.9395 10.5 23.6428 10.5 23.3333V3.50001C10.5 3.19059 10.6229 2.89384 10.8417 2.67505C11.0605 2.45626 11.3572 2.33334 11.6666 2.33334H15.1666C15.4761 2.33334 15.7728 2.45626 15.9916 2.67505C16.2104 2.89384 16.3333 3.19059 16.3333 3.50001V23.3333C16.3333 23.6428 16.2104 23.9395 15.9916 24.1583C15.7728 24.3771 15.4761 24.5 15.1666 24.5ZM23.3333 24.5H19.8333C19.5239 24.5 19.2271 24.3771 19.0084 24.1583C18.7896 23.9395 18.6666 23.6428 18.6666 23.3333V10.5C18.6666 10.1906 18.7896 9.89384 19.0084 9.67505C19.2271 9.45626 19.5239 9.33334 19.8333 9.33334H23.3333C23.6427 9.33334 23.9395 9.45626 24.1583 9.67505C24.3771 9.89384 24.5 10.1906 24.5 10.5V23.3333C24.5 23.6428 24.3771 23.9395 24.1583 24.1583C23.9395 24.3771 23.6427 24.5 23.3333 24.5Z" fill="#CDCDCD"/>
</svg>
