<svg width="36" height="36" viewBox="0 0 36 36" fill="none" xmlns="http://www.w3.org/2000/svg">
<rect width="36" height="36" rx="8" fill="#D03B31"/>
<path fill-rule="evenodd" clip-rule="evenodd" d="M12.5125 9.8335C15.4977 12.7642 17.9404 15.1959 17.9404 15.2377C17.9404 15.2795 16.8448 15.5069 15.5059 15.7431C13.9786 16.0122 12.4155 15.5262 11.31 14.4386L5.18069 8.40858C4.74524 7.98018 4.5 7.39489 4.5 6.78403V6.3376C4.5 5.32339 5.32338 4.50184 6.33759 4.50411C6.81654 4.50518 7.27605 4.69361 7.61785 5.02911L12.5125 9.8335ZM29.8561 13.0816C30.2867 13.4708 30.0114 14.1862 29.4309 14.1862H29.0755C27.5902 14.1862 26.5832 14.4251 25.1775 15.1109C21.3035 17.0006 17.0526 21.2203 14.9259 25.2865C14.2005 26.6742 13.9803 27.5687 13.9899 29.0896L13.9916 29.3511C13.9955 29.9641 13.2442 30.2621 12.8268 29.8131C11.7409 28.6444 11.6661 28.4231 11.847 26.9161C12.4284 22.0748 19.2148 14.5002 24.7794 12.4817C27.0164 11.6705 28.4869 11.8441 29.8561 13.0816ZM28.5972 17.6151C29.8823 18.6812 29.9605 19.2022 28.7919 18.913C26.7004 18.395 21.2729 22.4629 19.6535 25.762C19.242 26.6004 18.9053 27.8525 18.9053 28.5444C18.9053 28.9936 18.3546 29.21 18.0488 28.881L17.7033 28.5091C16.3696 27.0738 16.3637 26.6052 17.6478 23.9549C19.1148 20.927 24.4107 16.7351 26.7696 16.7351C27.1915 16.7351 28.0141 17.1311 28.5972 17.6151ZM27.4816 22.572C28.5138 23.5287 28.4869 23.7462 27.3066 23.979C26.0776 24.2217 24.1557 26.1293 23.9044 27.3559C23.6656 28.5206 23.485 28.5064 22.4718 27.2421C21.2987 25.7783 21.7974 24.4943 24.2763 22.5948C25.5273 21.6363 26.4643 21.6295 27.4816 22.572Z" fill="white"/>
</svg>
