<svg width="100" height="12" viewBox="0 0 100 12" fill="none" xmlns="http://www.w3.org/2000/svg">
<path d="M1.98486 11H7.00928C7.61719 11 8.0127 10.6558 8.0127 10.0845C8.0127 9.51318 7.60986 9.16895 7.00928 9.16895H3.09082V6.50293H6.81885C7.37549 6.50293 7.7417 6.18066 7.7417 5.65332C7.7417 5.12598 7.36816 4.80371 6.81885 4.80371H3.09082V2.26221H7.00928C7.60986 2.26221 8.0127 1.91797 8.0127 1.34668C8.0127 0.775391 7.61719 0.431152 7.00928 0.431152H1.98486C1.28906 0.431152 0.878906 0.855957 0.878906 1.58105V9.84277C0.878906 10.5752 1.28906 11 1.98486 11ZM10.3784 11.1392C10.7959 11.1392 11.0303 11 11.3086 10.5972L13.6304 7.30127H13.689L16.0474 10.5898C16.333 10.978 16.604 11.1392 17.0068 11.1392C17.6221 11.1392 18.0688 10.7217 18.0688 10.1431C18.0688 9.8501 17.981 9.60107 17.7759 9.3374L15.1099 5.74121V5.68994L17.8564 2.02051C18.0688 1.74951 18.1494 1.51514 18.1494 1.22949C18.1494 0.702148 17.6514 0.284668 17.0728 0.284668C16.6479 0.284668 16.4282 0.445801 16.1719 0.82666L13.8354 4.23975H13.7769L11.5137 0.899902C11.228 0.467773 10.9351 0.284668 10.5176 0.284668C9.87305 0.284668 9.39697 0.724121 9.39697 1.32471C9.39697 1.61035 9.47754 1.85205 9.71924 2.17432L12.2681 5.646V5.70459L9.63135 9.38135C9.41895 9.67432 9.33105 9.90869 9.33105 10.1797C9.33105 10.7144 9.79248 11.1392 10.3784 11.1392ZM20.8667 11H25.8911C26.499 11 26.8945 10.6558 26.8945 10.0845C26.8945 9.51318 26.4917 9.16895 25.8911 9.16895H21.9727V6.50293H25.7007C26.2573 6.50293 26.6235 6.18066 26.6235 5.65332C26.6235 5.12598 26.25 4.80371 25.7007 4.80371H21.9727V2.26221H25.8911C26.4917 2.26221 26.8945 1.91797 26.8945 1.34668C26.8945 0.775391 26.499 0.431152 25.8911 0.431152H20.8667C20.1709 0.431152 19.7607 0.855957 19.7607 1.58105V9.84277C19.7607 10.5752 20.1709 11 20.8667 11ZM29.4653 11.1538C30.1611 11.1538 30.5713 10.729 30.5713 10.0039V7.13281H32.4536L34.2114 10.3188C34.5703 10.9634 34.812 11.1538 35.3394 11.1538C35.9839 11.1538 36.4526 10.729 36.4526 10.1431C36.4526 9.88672 36.4014 9.69629 36.2183 9.38135L34.6948 6.74463C35.8594 6.24658 36.5112 5.11865 36.5112 3.80029C36.5112 1.71289 35.1196 0.431152 32.688 0.431152H29.4653C28.7695 0.431152 28.3594 0.855957 28.3594 1.58105V10.0039C28.3594 10.729 28.7769 11.1538 29.4653 11.1538ZM30.5713 5.52881V2.15967H32.4536C33.5522 2.15967 34.2407 2.81885 34.2407 3.84424C34.2407 4.8916 33.5889 5.52881 32.4756 5.52881H30.5713ZM42.6782 11.1758C44.6777 11.1758 46.2524 10.2749 46.9116 8.81006C47.0215 8.55371 47.0801 8.31934 47.0801 8.07031C47.0801 7.48438 46.6699 7.08887 46.0474 7.08887C45.5786 7.08887 45.3003 7.28662 45.0732 7.78467C44.5972 8.84668 43.7622 9.35205 42.6489 9.35205C40.957 9.35205 39.895 7.96045 39.895 5.70459C39.895 3.47803 40.9717 2.0791 42.6416 2.0791C43.6963 2.0791 44.5605 2.62109 45.0439 3.69775C45.2856 4.21045 45.6006 4.43018 46.0986 4.43018C46.6846 4.43018 47.0728 4.05664 47.0728 3.47803C47.0728 3.21436 46.9995 2.92871 46.853 2.65039C46.1279 1.12695 44.5972 0.248047 42.6196 0.248047C39.5801 0.248047 37.6392 2.30615 37.6392 5.71191C37.6392 9.125 39.5435 11.1758 42.6782 11.1758ZM49.7681 11.1392C50.4639 11.1392 50.874 10.7144 50.874 9.98926V1.44189C50.874 0.709473 50.4639 0.284668 49.7681 0.284668C49.0723 0.284668 48.6621 0.709473 48.6621 1.44189V9.98926C48.6621 10.7144 49.0723 11.1392 49.7681 11.1392ZM56.499 11.1758C59.1357 11.1758 60.7544 9.87207 60.7544 7.80664C60.7544 6.20264 59.7876 5.30176 57.5464 4.85498L56.4331 4.62793C55.1807 4.37891 54.6753 3.97607 54.6753 3.32422C54.6753 2.54785 55.4004 2.03516 56.4917 2.03516C57.3999 2.03516 58.0811 2.36475 58.4326 3.16309C58.6816 3.61719 58.9893 3.81494 59.4873 3.81494C60.0513 3.81494 60.4321 3.45605 60.4321 2.92871C60.4321 2.73828 60.4028 2.58447 60.3516 2.43799C59.8828 1.06104 58.4253 0.248047 56.4917 0.248047C54.1406 0.248047 52.4561 1.52979 52.4561 3.46338C52.4561 5.03809 53.4888 6.04883 55.5981 6.46631L56.7188 6.68604C58.0444 6.95703 58.5425 7.35254 58.5425 8.04834C58.5425 8.82471 57.7368 9.396 56.5503 9.396C55.5396 9.396 54.7119 9.02979 54.3677 8.22412C54.104 7.75537 53.8037 7.57959 53.3496 7.57959C52.7783 7.57959 52.3755 7.96777 52.3755 8.55371C52.3755 8.75146 52.4194 8.95654 52.4927 9.14697C52.9175 10.3042 54.3164 11.1758 56.499 11.1758ZM63.2153 11H68.2397C68.8477 11 69.2432 10.6558 69.2432 10.0845C69.2432 9.51318 68.8403 9.16895 68.2397 9.16895H64.3213V6.50293H68.0493C68.606 6.50293 68.9722 6.18066 68.9722 5.65332C68.9722 5.12598 68.5986 4.80371 68.0493 4.80371H64.3213V2.26221H68.2397C68.8403 2.26221 69.2432 1.91797 69.2432 1.34668C69.2432 0.775391 68.8477 0.431152 68.2397 0.431152H63.2153C62.5195 0.431152 62.1094 0.855957 62.1094 1.58105V9.84277C62.1094 10.5752 62.5195 11 63.2153 11Z" fill="black"/>
<path d="M71.814 11H76.6699C77.2778 11 77.6733 10.6558 77.6733 10.0845C77.6733 9.51318 77.2705 9.16895 76.6699 9.16895H72.9199V1.44189C72.9199 0.709473 72.5098 0.284668 71.814 0.284668C71.1182 0.284668 70.708 0.709473 70.708 1.44189V9.84277C70.708 10.5752 71.1182 11 71.814 11ZM83.1812 11.1758C86.3086 11.1758 88.2788 9.08105 88.2788 5.71924C88.2788 2.3501 86.3086 0.248047 83.1812 0.248047C80.0464 0.248047 78.0835 2.3501 78.0835 5.71924C78.0835 9.08105 80.0464 11.1758 83.1812 11.1758ZM83.1812 9.33008C81.4453 9.33008 80.3394 7.93115 80.3394 5.71924C80.3394 3.5 81.4526 2.09375 83.1812 2.09375C84.9097 2.09375 86.0156 3.5 86.0156 5.71924C86.0156 7.93115 84.9097 9.33008 83.1812 9.33008ZM94.4678 11.1758C97.4487 11.1758 99.1553 9.3667 99.1553 6.67871V6.51758C99.1553 5.79248 98.7451 5.36768 98.0493 5.36768H95.4639C94.9292 5.36768 94.5776 5.66797 94.5776 6.17334C94.5776 6.67871 94.9365 6.979 95.4639 6.979H97.002L96.9946 7.14746C96.9507 8.4585 95.9473 9.34473 94.5044 9.34473C92.7466 9.34473 91.6333 7.9458 91.6333 5.65332C91.6333 3.40479 92.6807 2.0791 94.4238 2.0791C95.4639 2.0791 96.2329 2.54053 96.7529 3.48535C97.0239 3.93213 97.3535 4.12988 97.8223 4.12988C98.4009 4.12988 98.7891 3.7417 98.7891 3.17773C98.7891 2.96533 98.7524 2.75293 98.6279 2.49658C98.0347 1.2002 96.4453 0.248047 94.4165 0.248047C91.311 0.248047 89.3774 2.29883 89.3774 5.68262C89.3774 9.11768 91.311 11.1758 94.4678 11.1758Z" fill="#B30E00"/>
</svg>
