<svg width="64" height="64" viewBox="0 0 64 64" fill="none" xmlns="http://www.w3.org/2000/svg">
<path d="M32.0001 3.55554C26.3743 3.55554 20.8749 5.22378 16.1972 8.34929C11.5196 11.4748 7.87377 15.9172 5.72088 21.1148C3.56799 26.3123 3.00469 32.0315 4.10223 37.5492C5.19976 43.0669 7.90883 48.1352 11.8869 52.1132C15.8649 56.0913 20.9332 58.8003 26.4509 59.8979C31.9686 60.9954 37.6878 60.4321 42.8853 58.2792C48.0829 56.1263 52.5253 52.4805 55.6508 47.8029C58.7763 43.1252 60.4446 37.6258 60.4446 32C60.4446 24.456 57.4477 17.2211 52.1134 11.8867C46.779 6.55236 39.5441 3.55554 32.0001 3.55554ZM32.0001 56.8889C27.0776 56.8889 22.2656 55.4292 18.1726 52.6943C14.0796 49.9595 10.8896 46.0724 9.00579 41.5246C7.12201 36.9767 6.62912 31.9724 7.58947 27.1444C8.54981 22.3164 10.9202 17.8817 14.401 14.4009C17.8818 10.9201 22.3166 8.54967 27.1445 7.58933C31.9725 6.62899 36.9768 7.12187 41.5247 9.00565C46.0725 10.8894 49.9596 14.0795 52.6945 18.1725C55.4293 22.2654 56.889 27.0774 56.889 32C56.889 38.6009 54.2668 44.9315 49.5992 49.5991C44.9316 54.2667 38.6011 56.8889 32.0001 56.8889Z" fill="#5D130E"/>
<path d="M49.7776 21.5111C49.4445 21.18 48.9939 20.9941 48.5242 20.9941C48.0546 20.9941 47.604 21.18 47.2709 21.5111L27.5376 41.1556L16.8709 30.4889C16.5456 30.1376 16.094 29.93 15.6156 29.9116C15.1372 29.8933 14.671 30.0658 14.3198 30.3911C13.9685 30.7164 13.7609 31.168 13.7425 31.6464C13.7242 32.1248 13.8967 32.591 14.222 32.9422L27.5376 46.2222L49.7776 24.0356C49.9442 23.8703 50.0764 23.6737 50.1667 23.457C50.2569 23.2404 50.3034 23.008 50.3034 22.7733C50.3034 22.5386 50.2569 22.3063 50.1667 22.0896C50.0764 21.873 49.9442 21.6764 49.7776 21.5111Z" fill="#5D130E"/>
</svg>
